<svg xmlns="http://www.w3.org/2000/svg" width="208" height="256"><style>line, path, circle, rect, polygon{stroke:black;stroke-width:2;stroke-opacity:1;fill-opacity:1;stroke-linecap:round;stroke-linejoin:miter;}text{font-family:Iosevka Fixed, monospace;font-size:14px;}rect.backdrop{stroke:none;fill:white;}.broken{stroke-dasharray:8;}.filled{fill:black;}.bg_filled{fill:white;}.nofill{fill:white;}.end_marked_arrow{marker-end:url(#arrow);}.start_marked_arrow{marker-start:url(#arrow);}.end_marked_diamond{marker-end:url(#diamond);}.start_marked_diamond{marker-start:url(#diamond);}.end_marked_circle{marker-end:url(#circle);}.start_marked_circle{marker-start:url(#circle);}.end_marked_open_circle{marker-end:url(#open_circle);}.start_marked_open_circle{marker-start:url(#open_circle);}.end_marked_big_open_circle{marker-end:url(#big_open_circle);}.start_marked_big_open_circle{marker-start:url(#big_open_circle);}<!--separator--></style><defs><marker id="arrow" viewBox="-2 -2 8 8" refX="4" refY="2" markerWidth="7" markerHeight="7" orient="auto-start-reverse"><polygon points="0,0 0,4 4,2 0,0"></polygon></marker><marker id="diamond" viewBox="-2 -2 8 8" refX="4" refY="2" markerWidth="7" markerHeight="7" orient="auto-start-reverse"><polygon points="0,2 2,0 4,2 2,4 0,2"></polygon></marker><marker id="circle" viewBox="0 0 8 8" refX="4" refY="4" markerWidth="7" markerHeight="7" orient="auto-start-reverse"><circle cx="4" cy="4" r="2" class="filled"></circle></marker><marker id="open_circle" viewBox="0 0 8 8" refX="4" refY="4" markerWidth="7" markerHeight="7" orient="auto-start-reverse"><circle cx="4" cy="4" r="2" class="bg_filled"></circle></marker><marker id="big_open_circle" viewBox="0 0 8 8" refX="4" refY="4" markerWidth="7" markerHeight="7" orient="auto-start-reverse"><circle cx="4" cy="4" r="3" class="bg_filled"></circle></marker></defs><rect class="backdrop" x="0" y="0" width="208" height="256"></rect><rect x="100" y="8" width="56" height="32" class="solid nofill" rx="4"></rect><text x="122" y="28" >A</text><rect x="52" y="104" width="56" height="32" class="solid nofill" rx="4"></rect><text x="74" y="124" >B</text><rect x="140" y="104" width="56" height="32" class="solid nofill" rx="4"></rect><text x="162" y="124" >C</text><rect x="100" y="200" width="56" height="32" class="solid nofill" rx="4"></rect><text x="122" y="220" >D</text><g><line x1="104" y1="48" x2="86" y2="84" class="solid"></line><polygon points="89,84 82,92 82,81" class="filled"></polygon></g><g><line x1="144" y1="48" x2="162" y2="84" class="solid"></line><polygon points="159,84 166,92 166,81" class="filled"></polygon></g><g><line x1="168" y1="144" x2="150" y2="180" class="solid"></line><polygon points="153,180 146,188 146,177" class="filled"></polygon></g></svg>