<svg xmlns="http://www.w3.org/2000/svg" width="288" height="256"><style>line, path, circle, rect, polygon{stroke:black;stroke-width:2;stroke-opacity:1;fill-opacity:1;stroke-linecap:round;stroke-linejoin:miter;}text{font-family:Iosevka Fixed, monospace;font-size:14px;}rect.backdrop{stroke:none;fill:white;}.broken{stroke-dasharray:8;}.filled{fill:black;}.bg_filled{fill:white;}.nofill{fill:white;}.end_marked_arrow{marker-end:url(#arrow);}.start_marked_arrow{marker-start:url(#arrow);}.end_marked_diamond{marker-end:url(#diamond);}.start_marked_diamond{marker-start:url(#diamond);}.end_marked_circle{marker-end:url(#circle);}.start_marked_circle{marker-start:url(#circle);}.end_marked_open_circle{marker-end:url(#open_circle);}.start_marked_open_circle{marker-start:url(#open_circle);}.end_marked_big_open_circle{marker-end:url(#big_open_circle);}.start_marked_big_open_circle{marker-start:url(#big_open_circle);}<!--separator--></style><defs><marker id="arrow" viewBox="-2 -2 8 8" refX="4" refY="2" markerWidth="7" markerHeight="7" orient="auto-start-reverse"><polygon points="0,0 0,4 4,2 0,0"></polygon></marker><marker id="diamond" viewBox="-2 -2 8 8" refX="4" refY="2" markerWidth="7" markerHeight="7" orient="auto-start-reverse"><polygon points="0,2 2,0 4,2 2,4 0,2"></polygon></marker><marker id="circle" viewBox="0 0 8 8" refX="4" refY="4" markerWidth="7" markerHeight="7" orient="auto-start-reverse"><circle cx="4" cy="4" r="2" class="filled"></circle></marker><marker id="open_circle" viewBox="0 0 8 8" refX="4" refY="4" markerWidth="7" markerHeight="7" orient="auto-start-reverse"><circle cx="4" cy="4" r="2" class="bg_filled"></circle></marker><marker id="big_open_circle" viewBox="0 0 8 8" refX="4" refY="4" markerWidth="7" markerHeight="7" orient="auto-start-reverse"><circle cx="4" cy="4" r="3" class="bg_filled"></circle></marker></defs><rect class="backdrop" x="0" y="0" width="288" height="256"></rect><rect x="108" y="8" width="56" height="32" class="solid nofill" rx="4"></rect><text x="130" y="28" >A</text><rect x="44" y="104" width="56" height="32" class="solid nofill" rx="4"></rect><text x="66" y="124" >B</text><rect x="172" y="104" width="56" height="32" class="solid nofill" rx="4"></rect><text x="194" y="124" >C</text><rect x="4" y="200" width="56" height="32" class="solid nofill" rx="4"></rect><text x="26" y="220" >D</text><rect x="76" y="200" width="56" height="32" class="solid nofill" rx="4"></rect><text x="98" y="220" >E</text><rect x="148" y="200" width="56" height="32" class="solid nofill" rx="4"></rect><text x="170" y="220" >F</text><rect x="220" y="200" width="56" height="32" class="solid nofill" rx="4"></rect><text x="242" y="220" >G</text><g><line x1="112" y1="48" x2="94" y2="84" class="solid"></line><polygon points="97,84 90,92 90,81" class="filled"></polygon></g><g><line x1="160" y1="48" x2="178" y2="84" class="solid"></line><polygon points="175,84 182,92 182,81" class="filled"></polygon></g><g><line x1="56" y1="144" x2="38" y2="180" class="solid"></line><polygon points="41,180 34,188 34,177" class="filled"></polygon></g><g><line x1="80" y1="144" x2="98" y2="180" class="solid"></line><polygon points="95,180 102,188 102,177" class="filled"></polygon></g><g><line x1="192" y1="144" x2="174" y2="180" class="solid"></line><polygon points="177,180 170,188 170,177" class="filled"></polygon></g><g><line x1="216" y1="144" x2="234" y2="180" class="solid"></line><polygon points="231,180 238,188 238,177" class="filled"></polygon></g></svg>